<svg width="644" height="351" viewBox="0 0 644 351" fill="none" xmlns="http://www.w3.org/2000/svg">
<path d="M94.095 315.45C86.1683 315.45 78.58 314.338 71.33 312.115C64.08 309.795 58.3283 306.847 54.075 303.27L60.6 288.625C64.66 291.815 69.6867 294.473 75.68 296.6C81.6733 298.727 87.8117 299.79 94.095 299.79C99.4117 299.79 103.713 299.21 107 298.05C110.287 296.89 112.703 295.343 114.25 293.41C115.797 291.38 116.57 289.108 116.57 286.595C116.57 283.502 115.458 281.037 113.235 279.2C111.012 277.267 108.112 275.768 104.535 274.705C101.055 273.545 97.14 272.482 92.79 271.515C88.5367 270.548 84.235 269.437 79.885 268.18C75.6317 266.827 71.7167 265.135 68.14 263.105C64.66 260.978 61.8083 258.175 59.585 254.695C57.3617 251.215 56.25 246.768 56.25 241.355C56.25 235.845 57.7 230.818 60.6 226.275C63.5967 221.635 68.0917 217.962 74.085 215.255C80.175 212.452 87.86 211.05 97.14 211.05C103.23 211.05 109.272 211.823 115.265 213.37C121.258 214.917 126.478 217.14 130.925 220.04L124.98 234.685C120.437 231.978 115.748 229.997 110.915 228.74C106.082 227.387 101.442 226.71 96.995 226.71C91.775 226.71 87.5217 227.338 84.235 228.595C81.045 229.852 78.6767 231.495 77.13 233.525C75.68 235.555 74.955 237.875 74.955 240.485C74.955 243.578 76.0183 246.092 78.145 248.025C80.3683 249.862 83.22 251.312 86.7 252.375C90.2767 253.438 94.24 254.502 98.59 255.565C102.94 256.532 107.242 257.643 111.495 258.9C115.845 260.157 119.76 261.8 123.24 263.83C126.817 265.86 129.668 268.615 131.795 272.095C134.018 275.575 135.13 279.973 135.13 285.29C135.13 290.703 133.632 295.73 130.635 300.37C127.735 304.913 123.24 308.587 117.15 311.39C111.06 314.097 103.375 315.45 94.095 315.45ZM185.576 315.015C176.973 315.015 169.433 313.323 162.956 309.94C156.576 306.46 151.598 301.723 148.021 295.73C144.541 289.737 142.801 282.922 142.801 275.285C142.801 267.552 144.493 260.737 147.876 254.84C151.356 248.847 156.093 244.158 162.086 240.775C168.176 237.392 175.088 235.7 182.821 235.7C190.361 235.7 197.08 237.343 202.976 240.63C208.873 243.917 213.513 248.557 216.896 254.55C220.28 260.543 221.971 267.6 221.971 275.72C221.971 276.493 221.923 277.363 221.826 278.33C221.826 279.297 221.778 280.215 221.681 281.085H157.156V269.05H212.111L205.006 272.82C205.103 268.373 204.185 264.458 202.251 261.075C200.318 257.692 197.66 255.033 194.276 253.1C190.99 251.167 187.171 250.2 182.821 250.2C178.375 250.2 174.46 251.167 171.076 253.1C167.79 255.033 165.18 257.74 163.246 261.22C161.41 264.603 160.491 268.615 160.491 273.255V276.155C160.491 280.795 161.555 284.903 163.681 288.48C165.808 292.057 168.805 294.812 172.671 296.745C176.538 298.678 180.985 299.645 186.011 299.645C190.361 299.645 194.276 298.968 197.756 297.615C201.236 296.262 204.33 294.135 207.036 291.235L216.751 302.4C213.271 306.46 208.873 309.602 203.556 311.825C198.336 313.952 192.343 315.015 185.576 315.015ZM272.007 315.015C263.887 315.015 256.637 313.323 250.257 309.94C243.973 306.46 239.043 301.723 235.467 295.73C231.89 289.737 230.102 282.922 230.102 275.285C230.102 267.552 231.89 260.737 235.467 254.84C239.043 248.847 243.973 244.158 250.257 240.775C256.637 237.392 263.887 235.7 272.007 235.7C279.547 235.7 286.168 237.247 291.872 240.34C297.672 243.337 302.07 247.783 305.067 253.68L291.147 261.8C288.827 258.127 285.975 255.42 282.592 253.68C279.305 251.94 275.728 251.07 271.862 251.07C267.415 251.07 263.403 252.037 259.827 253.97C256.25 255.903 253.447 258.707 251.417 262.38C249.387 265.957 248.372 270.258 248.372 275.285C248.372 280.312 249.387 284.662 251.417 288.335C253.447 291.912 256.25 294.667 259.827 296.6C263.403 298.533 267.415 299.5 271.862 299.5C275.728 299.5 279.305 298.63 282.592 296.89C285.975 295.15 288.827 292.443 291.147 288.77L305.067 296.89C302.07 302.69 297.672 307.185 291.872 310.375C286.168 313.468 279.547 315.015 272.007 315.015ZM350.605 315.015C344.031 315.015 338.231 313.807 333.205 311.39C328.178 308.877 324.263 305.107 321.46 300.08C318.656 294.957 317.255 288.528 317.255 280.795V236.57H335.38V278.33C335.38 285.29 336.926 290.51 340.02 293.99C343.21 297.373 347.705 299.065 353.505 299.065C357.758 299.065 361.431 298.195 364.525 296.455C367.715 294.715 370.18 292.105 371.92 288.625C373.756 285.145 374.675 280.843 374.675 275.72V236.57H392.8V314H375.545V293.12L378.59 299.5C375.98 304.527 372.161 308.393 367.135 311.1C362.108 313.71 356.598 315.015 350.605 315.015ZM413.631 314V236.57H430.886V257.885L428.856 251.65C431.176 246.43 434.801 242.467 439.731 239.76C444.757 237.053 450.992 235.7 458.436 235.7V252.955C457.662 252.762 456.937 252.665 456.261 252.665C455.584 252.568 454.907 252.52 454.231 252.52C447.367 252.52 441.906 254.55 437.846 258.61C433.786 262.573 431.756 268.518 431.756 276.445V314H413.631ZM506.598 315.015C497.995 315.015 490.455 313.323 483.978 309.94C477.598 306.46 472.62 301.723 469.043 295.73C465.563 289.737 463.823 282.922 463.823 275.285C463.823 267.552 465.515 260.737 468.898 254.84C472.378 248.847 477.115 244.158 483.108 240.775C489.198 237.392 496.11 235.7 503.843 235.7C511.383 235.7 518.102 237.343 523.998 240.63C529.895 243.917 534.535 248.557 537.918 254.55C541.302 260.543 542.993 267.6 542.993 275.72C542.993 276.493 542.945 277.363 542.848 278.33C542.848 279.297 542.8 280.215 542.703 281.085H478.178V269.05H533.133L526.028 272.82C526.125 268.373 525.207 264.458 523.273 261.075C521.34 257.692 518.682 255.033 515.298 253.1C512.012 251.167 508.193 250.2 503.843 250.2C499.397 250.2 495.482 251.167 492.098 253.1C488.812 255.033 486.202 257.74 484.268 261.22C482.432 264.603 481.513 268.615 481.513 273.255V276.155C481.513 280.795 482.577 284.903 484.703 288.48C486.83 292.057 489.827 294.812 493.693 296.745C497.56 298.678 502.007 299.645 507.033 299.645C511.383 299.645 515.298 298.968 518.778 297.615C522.258 296.262 525.352 294.135 528.058 291.235L537.773 302.4C534.293 306.46 529.895 309.602 524.578 311.825C519.358 313.952 513.365 315.015 506.598 315.015Z" fill="url(#paint0_linear_3_64)"/>
<path d="M45.095 187.45C37.1683 187.45 29.58 186.338 22.33 184.115C15.08 181.795 9.32833 178.847 5.075 175.27L11.6 160.625C15.66 163.815 20.6867 166.473 26.68 168.6C32.6733 170.727 38.8117 171.79 45.095 171.79C50.4117 171.79 54.7133 171.21 58 170.05C61.2867 168.89 63.7033 167.343 65.25 165.41C66.7967 163.38 67.57 161.108 67.57 158.595C67.57 155.502 66.4583 153.037 64.235 151.2C62.0117 149.267 59.1117 147.768 55.535 146.705C52.055 145.545 48.14 144.482 43.79 143.515C39.5367 142.548 35.235 141.437 30.885 140.18C26.6317 138.827 22.7167 137.135 19.14 135.105C15.66 132.978 12.8083 130.175 10.585 126.695C8.36167 123.215 7.25 118.768 7.25 113.355C7.25 107.845 8.7 102.818 11.6 98.275C14.5967 93.635 19.0917 89.9617 25.085 87.255C31.175 84.4517 38.86 83.05 48.14 83.05C54.23 83.05 60.2717 83.8233 66.265 85.37C72.2583 86.9167 77.4783 89.14 81.925 92.04L75.98 106.685C71.4367 103.978 66.7483 101.997 61.915 100.74C57.0817 99.3867 52.4417 98.71 47.995 98.71C42.775 98.71 38.5217 99.3383 35.235 100.595C32.045 101.852 29.6767 103.495 28.13 105.525C26.68 107.555 25.955 109.875 25.955 112.485C25.955 115.578 27.0183 118.092 29.145 120.025C31.3683 121.862 34.22 123.312 37.7 124.375C41.2767 125.438 45.24 126.502 49.59 127.565C53.94 128.532 58.2417 129.643 62.495 130.9C66.845 132.157 70.76 133.8 74.24 135.83C77.8167 137.86 80.6683 140.615 82.795 144.095C85.0183 147.575 86.13 151.973 86.13 157.29C86.13 162.703 84.6317 167.73 81.635 172.37C78.735 176.913 74.24 180.587 68.15 183.39C62.06 186.097 54.375 187.45 45.095 187.45ZM136.576 187.015C127.973 187.015 120.433 185.323 113.956 181.94C107.576 178.46 102.598 173.723 99.0214 167.73C95.5414 161.737 93.8014 154.922 93.8014 147.285C93.8014 139.552 95.4931 132.737 98.8764 126.84C102.356 120.847 107.093 116.158 113.086 112.775C119.176 109.392 126.088 107.7 133.821 107.7C141.361 107.7 148.08 109.343 153.976 112.63C159.873 115.917 164.513 120.557 167.896 126.55C171.28 132.543 172.971 139.6 172.971 147.72C172.971 148.493 172.923 149.363 172.826 150.33C172.826 151.297 172.778 152.215 172.681 153.085H108.156V141.05H163.111L156.006 144.82C156.103 140.373 155.185 136.458 153.251 133.075C151.318 129.692 148.66 127.033 145.276 125.1C141.99 123.167 138.171 122.2 133.821 122.2C129.375 122.2 125.46 123.167 122.076 125.1C118.79 127.033 116.18 129.74 114.246 133.22C112.41 136.603 111.491 140.615 111.491 145.255V148.155C111.491 152.795 112.555 156.903 114.681 160.48C116.808 164.057 119.805 166.812 123.671 168.745C127.538 170.678 131.985 171.645 137.011 171.645C141.361 171.645 145.276 170.968 148.756 169.615C152.236 168.262 155.33 166.135 158.036 163.235L167.751 174.4C164.271 178.46 159.873 181.602 154.556 183.825C149.336 185.952 143.343 187.015 136.576 187.015ZM231.417 107.7C237.603 107.7 243.113 108.908 247.947 111.325C252.877 113.742 256.743 117.463 259.547 122.49C262.35 127.42 263.752 133.8 263.752 141.63V186H245.627V143.95C245.627 137.087 243.983 131.963 240.697 128.58C237.507 125.197 233.012 123.505 227.212 123.505C222.958 123.505 219.188 124.375 215.902 126.115C212.615 127.855 210.053 130.465 208.217 133.945C206.477 137.328 205.607 141.63 205.607 146.85V186H187.482V108.57H204.737V129.45L201.692 123.07C204.398 118.14 208.313 114.37 213.437 111.76C218.657 109.053 224.65 107.7 231.417 107.7ZM312.989 187.015C304.483 187.015 297.909 184.84 293.269 180.49C288.629 176.043 286.309 169.518 286.309 160.915V91.46H304.434V160.48C304.434 164.153 305.353 167.005 307.189 169.035C309.123 171.065 311.781 172.08 315.164 172.08C319.224 172.08 322.608 171.017 325.314 168.89L330.389 181.795C328.263 183.535 325.653 184.84 322.559 185.71C319.466 186.58 316.276 187.015 312.989 187.015ZM273.549 123.65V109.15H325.169V123.65H273.549ZM342.399 186V108.57H360.524V186H342.399ZM351.534 95.81C348.151 95.81 345.348 94.7467 343.124 92.62C340.998 90.4933 339.934 87.9317 339.934 84.935C339.934 81.8417 340.998 79.28 343.124 77.25C345.348 75.1233 348.151 74.06 351.534 74.06C354.918 74.06 357.673 75.075 359.799 77.105C362.023 79.0383 363.134 81.5033 363.134 84.5C363.134 87.69 362.071 90.3967 359.944 92.62C357.818 94.7467 355.014 95.81 351.534 95.81ZM425.348 107.7C431.535 107.7 437.045 108.908 441.878 111.325C446.808 113.742 450.675 117.463 453.478 122.49C456.282 127.42 457.683 133.8 457.683 141.63V186H439.558V143.95C439.558 137.087 437.915 131.963 434.628 128.58C431.438 125.197 426.943 123.505 421.143 123.505C416.89 123.505 413.12 124.375 409.833 126.115C406.547 127.855 403.985 130.465 402.148 133.945C400.408 137.328 399.538 141.63 399.538 146.85V186H381.413V108.57H398.668V129.45L395.623 123.07C398.33 118.14 402.245 114.37 407.368 111.76C412.588 109.053 418.582 107.7 425.348 107.7ZM514.313 187.015C505.709 187.015 498.169 185.323 491.693 181.94C485.313 178.46 480.334 173.723 476.758 167.73C473.278 161.737 471.538 154.922 471.538 147.285C471.538 139.552 473.229 132.737 476.613 126.84C480.093 120.847 484.829 116.158 490.823 112.775C496.913 109.392 503.824 107.7 511.558 107.7C519.098 107.7 525.816 109.343 531.713 112.63C537.609 115.917 542.249 120.557 545.633 126.55C549.016 132.543 550.708 139.6 550.708 147.72C550.708 148.493 550.659 149.363 550.563 150.33C550.563 151.297 550.514 152.215 550.418 153.085H485.893V141.05H540.848L533.743 144.82C533.839 140.373 532.921 136.458 530.988 133.075C529.054 129.692 526.396 127.033 523.013 125.1C519.726 123.167 515.908 122.2 511.558 122.2C507.111 122.2 503.196 123.167 499.813 125.1C496.526 127.033 493.916 129.74 491.983 133.22C490.146 136.603 489.228 140.615 489.228 145.255V148.155C489.228 152.795 490.291 156.903 492.418 160.48C494.544 164.057 497.541 166.812 501.408 168.745C505.274 170.678 509.721 171.645 514.748 171.645C519.098 171.645 523.013 170.968 526.493 169.615C529.973 168.262 533.066 166.135 535.773 163.235L545.488 174.4C542.008 178.46 537.609 181.602 532.293 183.825C527.073 185.952 521.079 187.015 514.313 187.015ZM565.218 186V78.41H583.343V186H565.218Z" fill="url(#paint1_linear_3_64)"/>
<path d="M554.317 298.836C575.841 288.62 594.758 273.64 609.634 255.03C624.511 236.419 634.957 214.667 640.18 191.422C645.404 168.176 645.268 144.046 639.784 120.861C634.3 97.6751 623.61 76.0418 608.526 57.5997C593.442 39.1577 574.358 24.3906 552.72 14.4173C531.083 4.44394 507.459 -0.474022 483.639 0.0359725C459.819 0.545967 436.428 6.47054 415.237 17.3608C394.046 28.2511 375.612 43.8215 361.331 62.8923L376.411 74.1852C388.979 57.4029 405.201 43.701 423.849 34.1175C442.497 24.5341 463.081 19.3205 484.043 18.8717C505.004 18.4229 525.793 22.7507 544.834 31.5272C563.875 40.3037 580.669 53.2987 593.943 69.5278C607.217 85.7568 616.624 104.794 621.45 125.197C626.276 145.601 626.395 166.835 621.799 187.291C617.202 207.747 608.01 226.889 594.918 243.266C581.827 259.643 565.18 272.826 546.239 281.816L554.317 298.836Z" fill="url(#paint2_linear_3_64)"/>
<defs>
<linearGradient id="paint0_linear_3_64" x1="65.6925" y1="281.158" x2="553.266" y2="279.365" gradientUnits="userSpaceOnUse">
<stop stop-color="#9333EA"/>
<stop offset="1" stop-color="#DB2777"/>
</linearGradient>
<linearGradient id="paint1_linear_3_64" x1="19.8975" y1="153.158" x2="601.082" y2="150.61" gradientUnits="userSpaceOnUse">
<stop stop-color="#9333EA"/>
<stop offset="1" stop-color="#DB2777"/>
</linearGradient>
<linearGradient id="paint2_linear_3_64" x1="33" y1="211" x2="644.008" y2="208.382" gradientUnits="userSpaceOnUse">
<stop stop-color="#9333EA"/>
<stop offset="1" stop-color="#DB2777"/>
</linearGradient>
</defs>
</svg>
